<?xml version="1.0" standalone="no"?>
<!DOCTYPE svg PUBLIC "-//W3C//DTD SVG 20010904//EN"
 "http://www.w3.org/TR/2001/REC-SVG-20010904/DTD/svg10.dtd">
<svg version="1.0" xmlns="http://www.w3.org/2000/svg"
 width="665.000000pt" height="499.000000pt" viewBox="0 0 665.000000 499.000000"
 preserveAspectRatio="xMidYMid meet">

<g transform="translate(0.000000,499.000000) scale(0.100000,-0.100000)"
fill="#000000" stroke="none">
<path d="M2440 4381 c0 -2 95 -190 210 -417 116 -227 210 -419 210 -426 0 -7
-161 -229 -358 -493 l-358 -480 119 -3 c99 -2 125 0 153 15 26 14 106 117 320
413 157 217 289 396 293 398 4 1 89 -174 190 -390 108 -232 193 -402 207 -415
23 -21 35 -23 139 -23 l114 0 -176 358 c-96 196 -204 418 -240 494 l-65 136
317 417 c174 229 314 419 312 422 -3 3 -67 2 -141 -2 l-136 -7 -235 -324
c-130 -178 -243 -337 -253 -354 -9 -16 -19 -30 -22 -30 -3 0 -74 146 -158 323
-84 178 -162 337 -172 355 l-19 31 -126 3 c-69 2 -125 1 -125 -1z"/>
<path d="M470 4373 c0 -5 -50 -413 -110 -907 -61 -495 -110 -901 -110 -903 0
-1 53 -3 118 -3 l119 0 37 308 c21 169 40 323 43 343 l5 37 217 5 c244 5 286
13 420 78 193 95 309 278 328 517 16 215 -72 389 -237 470 -111 55 -169 62
-517 62 -172 0 -313 -3 -313 -7z m563 -184 c170 -26 254 -119 265 -291 5 -89
-9 -158 -49 -244 -35 -76 -98 -135 -187 -177 l-67 -32 -197 -3 c-194 -3 -198
-3 -198 17 0 23 76 657 85 709 l6 32 135 0 c74 0 168 -5 207 -11z"/>
<path d="M1896 4348 c-8 -45 -216 -1760 -216 -1775 0 -10 31 -13 120 -13 82 0
120 4 120 11 0 15 208 1722 216 1772 l6 37 -121 0 -120 0 -5 -32z"/>
<path d="M4120 4364 c0 -19 -206 -1708 -216 -1766 l-6 -38 520 0 519 0 6 38
c3 20 9 65 13 100 l7 62 -397 0 c-370 0 -396 1 -396 18 0 9 16 151 37 315 l37
297 321 0 322 0 7 63 c4 34 9 77 13 95 l5 32 -321 0 c-299 0 -321 1 -321 18 0
9 16 144 35 300 19 156 35 285 35 287 0 3 180 5 399 5 l399 0 7 53 c3 28 9 71
12 95 l5 42 -521 0 c-475 0 -521 -1 -521 -16z"/>
<path d="M5485 4338 c-12 -91 -215 -1752 -215 -1765 0 -11 87 -13 479 -13
l478 0 7 73 c4 39 9 87 13 105 l5 32 -361 0 -362 0 6 33 c3 17 46 363 95 767
49 404 93 752 96 773 l6 37 -121 0 -120 0 -6 -42z"/>
<path d="M4632 2099 c-136 -23 -288 -130 -350 -247 -50 -94 -65 -162 -60 -271
3 -79 9 -105 30 -146 50 -96 108 -136 308 -214 235 -93 272 -126 278 -251 7
-137 -59 -250 -177 -307 -48 -23 -69 -27 -151 -27 -88 -1 -100 2 -160 31 -36
18 -89 53 -117 78 -71 62 -92 59 -156 -20 l-48 -60 61 -58 c70 -66 169 -119
254 -137 74 -15 218 -15 282 1 222 55 379 229 415 459 22 142 -10 249 -100
333 -54 51 -102 77 -241 132 -173 68 -246 118 -271 182 -20 53 -11 136 22 202
54 109 149 157 293 149 89 -5 129 -21 210 -83 28 -21 56 -35 69 -33 12 2 41
29 66 62 l45 59 -52 47 c-118 105 -278 148 -450 119z"/>
<path d="M430 2075 c0 -10 -43 -366 -95 -793 -52 -427 -95 -784 -95 -794 0
-16 10 -18 105 -18 82 0 105 3 105 14 0 7 16 140 35 295 19 154 35 285 35 290
0 5 84 11 188 14 143 3 204 9 257 24 209 58 350 199 401 402 23 91 15 255 -15
332 -40 103 -118 173 -247 221 -55 20 -80 22 -366 26 -284 3 -308 2 -308 -13z
m552 -165 c65 -19 130 -71 158 -125 22 -43 25 -62 25 -150 -1 -81 -5 -111 -24
-160 -32 -80 -103 -154 -184 -191 -60 -28 -68 -29 -240 -32 -169 -3 -179 -3
-174 15 3 10 22 158 42 328 20 171 39 316 41 324 4 11 32 13 162 8 86 -3 174
-11 194 -17z"/>
<path d="M1685 2078 c-7 -23 -116 -950 -122 -1038 -10 -155 38 -320 124 -419
49 -58 140 -116 222 -142 86 -27 247 -29 340 -5 177 47 325 166 419 336 66
119 77 175 147 733 36 290 65 531 65 537 0 6 -40 10 -104 10 l-104 0 -6 -37
c-3 -21 -33 -258 -66 -528 -33 -269 -66 -511 -74 -537 -70 -225 -240 -359
-440 -346 -92 6 -164 38 -217 95 -53 57 -77 113 -91 210 -11 73 -7 112 51 583
34 278 64 517 67 533 l6 27 -107 0 c-76 0 -107 -4 -110 -12z"/>
<path d="M3181 1498 c-40 -326 -85 -691 -100 -811 l-27 -217 427 0 427 0 7 73
c3 39 9 80 11 90 5 16 -15 17 -315 17 -177 0 -321 3 -321 6 0 9 169 1386 173
1412 4 22 3 22 -103 22 l-107 0 -72 -592z"/>
<path d="M5475 2078 c-4 -14 -195 -1575 -195 -1595 0 -10 98 -13 459 -13 l459
0 5 23 c3 12 9 52 12 90 l7 67 -356 0 -355 0 4 28 c7 35 65 506 65 521 0 8 79
11 284 11 157 0 287 3 289 8 3 4 8 40 12 80 l7 72 -280 0 c-155 0 -283 3 -285
8 -3 5 55 502 62 540 1 1 160 2 355 2 l355 0 6 58 c3 31 9 69 11 85 l6 27
-462 0 c-360 0 -462 -3 -465 -12z"/>
</g>
</svg>
